<?xml version="1.0" encoding="UTF-8"?><svg id="Warstwa_1" xmlns="http://www.w3.org/2000/svg" viewBox="0 0 570 569.17"><defs><style>.cls-1{fill:#fff;}.cls-2{fill:#ff506f;}.cls-3{fill:#112a93;}</style></defs><g id="Glossary"><path class="cls-2" d="m216.33,472.4c-127.11-71.94-138.57-217.49-138.98-224.17-4.66-75.67,21.02-183.92,102.03-227.57,9.36-5.05,62.83-33.86,110.27-13.42,37.77,16.27,74.2,64.84,86.51,106.92,1.74,5.96,3.11,12.16,8.56,18.54,21.03,24.63,62.4,4.45,95.16,12.29,55.81,13.37,103.59,112.11,86.66,199.39-20.38,105.08-125.25,145.6-141.72,151.62-101.35,37.04-190.22-13.26-208.5-23.6Z"/><g><g><g><path class="cls-1" d="m282.1,317.35c-2.27,1.41-12.31,24.92-4,42.99H82.17l-7.97-12.74,15.29-31.63,192.61,1.38Z"/><path d="m278.1,361.37H82.17c-.35,0-.68-.18-.87-.48l-7.97-12.74c-.19-.3-.21-.67-.05-.99l15.29-31.63c.17-.36.55-.57.93-.58l192.61,1.38c.46,0,.86.31.98.75.12.44-.06.9-.44,1.15-2.12,1.59-11.57,24.4-3.62,41.69.15.32.12.69-.07.98-.19.29-.52.47-.87.47Zm-195.36-2.06h193.8c-6.21-15.48-.14-34.77,3.51-40.95l-189.92-1.36-14.76,30.54,7.37,11.77Z"/></g><g><path class="cls-1" d="m59.09,61.28c-.59-4.95-1.96-11.51-5.24-18.6-6.46-14-16.61-22.06-21.98-25.73,3.99-.36,9.71-.43,16.34,1.04,5.63,1.24,10.13,3.2,13.36,4.91-1.82-7.18-3.64-14.36-5.45-21.54,4.45,2.14,16.88,8.84,25.09,23.73,8.51,15.43,7.19,30.08,6.54,34.91-9.56.43-19.11.87-28.67,1.3Z"/><path d="m59.09,62.31c-.52,0-.96-.39-1.02-.91-.76-6.39-2.49-12.54-5.15-18.3-5.87-12.72-15-20.79-21.62-25.31-.36-.24-.52-.69-.42-1.11.11-.42.47-.73.9-.77,5.59-.51,11.19-.15,16.66,1.06,4,.89,7.89,2.22,11.59,3.99L55.13,1.6c-.1-.39.04-.8.35-1.05.31-.25.74-.3,1.1-.13,6.22,2.99,17.8,10.11,25.54,24.16,7.99,14.48,7.6,28.48,6.66,35.54-.07.49-.48.87-.97.89l-28.67,1.3s-.03,0-.05,0Zm-24.27-44.52c6.53,4.89,14.57,12.76,19.97,24.45,2.61,5.66,4.36,11.7,5.2,17.96l26.86-1.22c.82-7.04.86-20.02-6.53-33.42-6.7-12.15-16.39-18.93-22.64-22.28l4.9,19.35c.1.39-.04.81-.36,1.06-.32.25-.76.29-1.12.1-4.14-2.19-8.55-3.81-13.1-4.81-4.33-.96-8.75-1.36-13.17-1.2Z"/></g><path class="cls-3" d="m26.97,66.6l4.83-5.52c6.18-7.06,15.11-11.12,24.49-11.12h155.93c9.76,0,18.21,6.78,20.31,16.31l54.33,245.74c1.65,7.47-4.04,14.56-11.69,14.56H103.97c-6.58,0-12.72,3.33-16.3,8.85l-5.63,8.66c-3.76,5.78.39,13.43,7.29,13.43h189.83c2.17,0,3.82,1.96,3.45,4.09h0c-.29,1.68-1.74,2.9-3.45,2.9H83.91c-9.19,0-17.05-6.6-18.64-15.66L20.04,91.41c-1.56-8.89.99-18.01,6.93-24.81Z"/><g><path class="cls-1" d="m98.02,127.38l-1.27,16.55h-15.11l6.76-64.47h19.13l32.93,64.47h-15.69l-8.29-16.55h-18.46Zm14.17-10.9l-6.77-13.68c-1.92-3.82-4.02-8.61-5.75-12.43h-.19c-.19,3.82-.17,8.7-.47,12.43l-1.08,13.68h14.25Z"/><path class="cls-1" d="m163.95,113.99l1.94,9.66h-25.06l-1.94-9.66h25.06Z"/><path class="cls-1" d="m173.48,136.09l21.83-44.19-.08-.38h-27.83l-2.42-12.05h46.78l1.69,8.42-21.28,43.62.08.38h30.52l2.42,12.05h-50.13l-1.57-7.84Z"/></g><path class="cls-1" d="m50.95,61.62l46.1,249.92c.1.56-.27,1.09-.82,1.2-.56.1-1.09-.27-1.2-.82h0S49.76,61.84,49.76,61.84c-.06-.33.16-.65.49-.71.33-.06.65.16.71.49Z"/><path d="m274.9,343.54h-96.75c-.57,0-1.03-.46-1.03-1.03s.46-1.03,1.03-1.03h96.75c.57,0,1.03.46,1.03,1.03s-.46,1.03-1.03,1.03Z"/><g><path d="m275.59,335.36h-66.32c-.57,0-1.03-.46-1.03-1.03s.46-1.03,1.03-1.03h66.32c.57,0,1.03.46,1.03,1.03s-.46,1.03-1.03,1.03Z"/><path d="m201.21,335.36h-7.09c-.57,0-1.03-.46-1.03-1.03s.46-1.03,1.03-1.03h7.09c.57,0,1.03.46,1.03,1.03s-.46,1.03-1.03,1.03Z"/></g><g><path d="m274.9,350.9h-41.75c-.57,0-1.03-.46-1.03-1.03s.46-1.03,1.03-1.03h41.75c.57,0,1.03.46,1.03,1.03s-.46,1.03-1.03,1.03Z"/><path d="m228.08,350.9h-4.46c-.57,0-1.03-.46-1.03-1.03s.46-1.03,1.03-1.03h4.46c.57,0,1.03.46,1.03,1.03s-.46,1.03-1.03,1.03Z"/></g></g><g><g><path class="cls-1" d="m422.61,436.31c-8.97-18.45-9.82-37.05,0-55.83l-7.05-8.45-192.78,6.34,6.65,61.24,186.61,2.15,6.58-5.45Z"/><path d="m416.04,442.79h-.01l-186.61-2.15c-.52,0-.95-.4-1.01-.92l-6.64-61.24c-.03-.28.06-.57.25-.78.19-.22.46-.34.74-.35l192.78-6.34c.33,0,.62.13.82.37l7.05,8.45c.27.32.31.77.12,1.13-9.3,17.79-9.3,35.75.01,54.91.21.43.1.94-.27,1.24l-6.58,5.45c-.18.15-.42.24-.66.24Zm-185.69-4.2l185.32,2.14,5.67-4.69c-9.03-19.04-9.01-37.68.05-55.42l-6.29-7.54-191.17,6.29,6.43,59.23Z"/></g><g><path class="cls-1" d="m68.38,365.28h357.81c4.18,0,7.57,3.39,7.57,7.57s-3.39,7.57-7.57,7.57h-164.5c-12.05,0-21.81,9.77-21.81,21.81v12.26c0,12.05,9.77,21.81,21.81,21.81h164.5c4.18,0,7.57,3.39,7.57,7.57s-3.39,7.57-7.57,7.57H68.38c-22.21,0-40.22-18.01-40.22-40.22v-5.74c0-22.21,18.01-40.22,40.22-40.22Z"/><path d="m426.19,452.49H68.38c-22.74,0-41.24-18.5-41.24-41.24v-5.74c0-22.74,18.5-41.24,41.24-41.24h357.81c4.74,0,8.6,3.86,8.6,8.6s-3.86,8.6-8.6,8.6h-164.5c-11.46,0-20.78,9.32-20.78,20.78v12.26c0,11.46,9.32,20.78,20.78,20.78h164.5c4.74,0,8.6,3.86,8.6,8.6s-3.86,8.6-8.6,8.6Zm-357.81-86.17c-21.61,0-39.19,17.58-39.19,39.19v5.74c0,21.61,17.58,39.19,39.19,39.19h357.81c3.61,0,6.54-2.94,6.54-6.54s-2.94-6.54-6.54-6.54h-164.5c-12.59,0-22.84-10.25-22.84-22.84v-12.26c0-12.59,10.25-22.84,22.84-22.84h164.5c3.61,0,6.54-2.94,6.54-6.54s-2.94-6.54-6.54-6.54H68.38Z"/></g><path d="m332.84,397.7h-14.09c-.57,0-1.03-.46-1.03-1.03s.46-1.03,1.03-1.03h14.09c.57,0,1.03.46,1.03,1.03s-.46,1.03-1.03,1.03Z"/><path d="m416.24,397.7h-74.59c-.57,0-1.03-.46-1.03-1.03s.46-1.03,1.03-1.03h74.59c.57,0,1.03.46,1.03,1.03s-.46,1.03-1.03,1.03Z"/><path d="m415.56,406.82h-88.25c-.57,0-1.03-.46-1.03-1.03s.46-1.03,1.03-1.03h88.25c.57,0,1.03.46,1.03,1.03s-.46,1.03-1.03,1.03Z"/><path d="m321.15,423.17h-16.04c-.57,0-1.03-.46-1.03-1.03s.46-1.03,1.03-1.03h16.04c.57,0,1.03.46,1.03,1.03s-.46,1.03-1.03,1.03Z"/><path d="m416.24,423.17h-88.25c-.57,0-1.03-.46-1.03-1.03s.46-1.03,1.03-1.03h88.25c.57,0,1.03.46,1.03,1.03s-.46,1.03-1.03,1.03Z"/></g><g><g><path class="cls-1" d="m417.05,539.49H93.85v-79.18h323.2c-9.54,26.75-9.8,53.15,0,79.18Z"/><path d="m417.05,540.52H93.85c-.57,0-1.03-.46-1.03-1.03v-79.18c0-.57.46-1.03,1.03-1.03h323.2c.33,0,.65.16.84.44.19.27.24.62.13.94-9.54,26.75-9.54,53.15,0,78.47.12.32.08.67-.12.95-.19.28-.51.44-.85.44Zm-322.17-2.06h320.7c-9.04-24.93-9.03-50.87.03-77.13H94.88v77.13Z"/></g><g><path class="cls-1" d="m132.76,464.21h286.51c3.45,0,6.24-2.79,6.24-6.24h0c0-3.45-2.79-6.24-6.24-6.24H47.47c-15.14,0-27.42,12.27-27.42,27.42v43.1c0,15.14,12.27,27.42,27.42,27.42h371.8c3.45,0,6.24-2.79,6.24-6.24s-2.79-6.24-6.24-6.24H132.76c-10.7,0-19.37-8.67-19.37-19.37v-34.24c0-10.7,8.67-19.37,19.37-19.37Z"/><path d="m419.27,550.7H47.47c-15.68,0-28.45-12.76-28.45-28.45v-43.1c0-15.68,12.76-28.45,28.45-28.45h371.8c4.01,0,7.27,3.26,7.27,7.27s-3.26,7.27-7.27,7.27H132.76c-10.11,0-18.34,8.23-18.34,18.34v34.24c0,10.11,8.23,18.34,18.34,18.34h286.51c4.01,0,7.27,3.26,7.27,7.27s-3.26,7.27-7.27,7.27ZM47.47,452.76c-14.55,0-26.39,11.84-26.39,26.39v43.1c0,14.55,11.84,26.39,26.39,26.39h371.8c2.87,0,5.21-2.34,5.21-5.21s-2.34-5.21-5.21-5.21H132.76c-11.25,0-20.4-9.15-20.4-20.4v-34.24c0-11.25,9.15-20.4,20.4-20.4h286.51c2.87,0,5.21-2.34,5.21-5.21s-2.34-5.21-5.21-5.21H47.47Z"/></g><path d="m411.33,480.14h-47.72c-.57,0-1.03-.46-1.03-1.03s.46-1.03,1.03-1.03h47.72c.57,0,1.03.46,1.03,1.03s-.46,1.03-1.03,1.03Z"/><path d="m355.43,480.14h-86.75c-.57,0-1.03-.46-1.03-1.03s.46-1.03,1.03-1.03h86.75c.57,0,1.03.46,1.03,1.03s-.46,1.03-1.03,1.03Z"/><path d="m410.33,490.71h-119.26c-.57,0-1.03-.46-1.03-1.03s.46-1.03,1.03-1.03h119.26c.57,0,1.03.46,1.03,1.03s-.46,1.03-1.03,1.03Z"/><path d="m280.98,490.71h-24.27c-.57,0-1.03-.46-1.03-1.03s.46-1.03,1.03-1.03h24.27c.57,0,1.03.46,1.03,1.03s-.46,1.03-1.03,1.03Z"/><path d="m410.33,512.76h-126.46c-.57,0-1.03-.46-1.03-1.03s.46-1.03,1.03-1.03h126.46c.57,0,1.03.46,1.03,1.03s-.46,1.03-1.03,1.03Z"/><path d="m274.98,512.76h-6.3c-.57,0-1.03-.46-1.03-1.03s.46-1.03,1.03-1.03h6.3c.57,0,1.03.46,1.03,1.03s-.46,1.03-1.03,1.03Z"/></g></g><g><path class="cls-3" d="m107.68,502.32h73.97s10.14,61.68-34.01,66.61c-44.15,4.92-39.96-66.61-39.96-66.61Z"/><g><path class="cls-2" d="m129.86,487.24c-7.11.08-21.96-.88-34.33-11.23-4.2-3.51-12.41-10.38-11.23-17.88,1.23-7.75,12.23-14.52,27.44-14.71-14.93,1.77-26.95-9.42-26.97-20.99-.01-8.86,7.01-17.65,17.4-20.56-16.09-12.16-24.55-31.76-21.88-51.21,2.6-18.92,15.7-37.54,35.48-43.29,2.49-.72,23.98-6.61,39.45,6.58,12.99,11.07,13.14,28.24,13.23,39.95.17,20.82-8.18,36.65-13.23,44.59,1.06-.07,14.48-.78,22.54,9.86,6.72,8.87,5.98,20.7,1.02,28.92-5.19,8.6-13.82,11.32-16.05,11.94,9.35,8.26,9.03,15.14,8.92,16.44-.87,11.05-17.42,22.41-41.8,21.6Z"/><path d="m122.8,345.83c.85,3.04,1.63,6.09,2.38,9.15l1.1,4.59,1.04,4.61c.71,3.07,1.3,6.16,1.96,9.24.63,3.08,1.18,6.18,1.78,9.27,2.25,12.39,4.02,24.87,5.31,37.4l.88,9.41.6,9.43c.25,3.14.29,6.29.39,9.44l.14,4.73.07,2.36-.02,2.36-.09,9.46c.02,1.58-.11,3.15-.19,4.73l-.25,4.72-.25,4.73c-.09,1.57-.31,3.14-.45,4.71l-.98,9.42c-.06.56-.56.97-1.13.92-.56-.06-.98-.56-.92-1.13h0s0-.06,0-.06l1.04-9.34c.16-1.56.38-3.11.48-4.67l.28-4.69.28-4.69c.08-1.56.23-3.13.22-4.69l.16-9.4.04-2.35-.05-2.35-.1-4.7c-.08-3.14-.1-6.27-.32-9.4l-.53-9.4-.81-9.38c-1.2-12.5-2.87-24.95-5.02-37.33-.57-3.09-1.1-6.18-1.71-9.26-.63-3.08-1.2-6.17-1.89-9.23l-1-4.6-1.07-4.59c-.72-3.05-1.48-6.1-2.3-9.13h0c-.07-.26.08-.52.33-.59.25-.07.51.08.58.33Z"/></g><g><path class="cls-3" d="m146.68,487.67c-1.63-4-8.71-22.48.47-38.04,1.89-3.2,8.21-13.91,17.38-13.15,6.84.56,11.15,7.16,12.1,8.69-2.76-10.04,2.19-20.21,10.44-23.72,9.75-4.15,22.71,1.59,26.3,13.62,2.41-.68,8.92-2.17,15.5.94,8.66,4.09,13.87,14.43,12.68,25.83-3.6,12.23-14.77,19.71-25.36,18.32-11.5-1.51-16.99-12.8-17.38-13.62,1.79,2.82,4.43,8.06,2.82,13.15-2.71,8.55-16.17,12.8-25.83,10.33-8.97-2.29-11.56-9.58-18.79-8.92-4.76.43-8.29,4.01-10.33,6.58Z"/><path d="m144.11,494.47c.81-3.91,2.09-7.57,3.65-11.16,1.57-3.57,3.48-7,5.72-10.2,4.46-6.41,10.45-11.81,17.41-15.38,6.96-3.57,14.81-5.3,22.59-5.18,7.79.17,15.5,2.09,22.47,5.53.26.13.37.45.24.71-.13.26-.45.37-.71.25h-.01c-6.84-3.29-14.43-5.09-22.02-5.17-7.58-.04-15.16,1.73-21.85,5.25-6.69,3.52-12.4,8.78-16.65,15.03-2.14,3.12-3.95,6.46-5.44,9.94-1.47,3.47-2.69,7.12-3.4,10.75v.05c-.12.56-.66.92-1.22.81-.56-.11-.92-.65-.81-1.21,0,0,0,0,0-.01Z"/></g></g><g><g><path class="cls-3" d="m434.69,495.84s14.34,28.94,30.45,42.85c2.72,2.35,6.95,1.05,7.96-2.39.59-1.99,1.16-4.64,1.63-8.18,1.77-13.21-10.11-47.62-10.11-47.62l-5.29-1.71c-1.86-.6-3.83.54-4.24,2.45l-.55,2.58-6.36-5.6c-1.45-1.28-3.67-1.08-4.87.43-2.43,3.08-6.21,8.83-8.62,17.19Z"/><path d="m469.63,536.24c-.26,0-.53-.1-.73-.3-16.43-16.5-30.17-42.3-30.31-42.56-.27-.5-.07-1.12.43-1.39.5-.27,1.12-.07,1.39.43.14.26,13.74,25.8,29.95,42.07.4.4.4,1.05,0,1.45-.2.2-.46.3-.73.3Z"/><path d="m462.64,513.65c-.43,0-.83-.27-.98-.71-.18-.54.12-1.12.66-1.3l8.57-2.82c.54-.18,1.12.12,1.3.65.18.54-.12,1.12-.66,1.3l-8.57,2.82c-.11.04-.22.05-.32.05Z"/><path d="m457.01,504.5c-.43,0-.83-.27-.98-.71-.18-.54.12-1.12.66-1.3l10.77-3.54c.54-.18,1.12.12,1.3.66.18.54-.12,1.12-.66,1.3l-10.77,3.54c-.11.04-.22.05-.32.05Z"/></g><path d="m317.6,278.51c1.1-1.16,79.66-35.1,111.77-42.32,32.11-7.22,44.07-7.29,55,11.06,10.93,18.35-52.63,118.49-52.63,118.49l-135.22-35.24,21.08-51.99Z"/><path class="cls-1" d="m393.7,317.59c-.14,0-.28-.03-.42-.09-.52-.23-.75-.84-.52-1.36,15.14-33.79,40.13-57.93,40.38-58.17.41-.39,1.06-.38,1.45.03.39.41.38,1.06-.03,1.45-.25.24-24.96,24.12-39.93,57.53-.17.38-.55.61-.94.61Z"/><path d="m253.33,323.36s3.56,36.5,11.45,44.09c7.89,7.59,102.61,0,102.61,0,0,0,7.53,12.33,12.45,45.29,4.92,32.96,10.41,77.33,18.55,88.15l70.92-15.31s-23.52-141.18-39.86-160.38c-16.34-19.2-135.21-22.22-135.21-22.22l-40.91,20.38Z"/><path class="cls-1" d="m437.65,343.54c-.43,0-.82-.27-.97-.69-2.96-8.5-5.65-14.21-8.01-16.99-8.63-10.14-64.77-17.51-114.43-21.02-.57-.04-.99-.53-.95-1.1.04-.57.53-1,1.1-.95,31.15,2.2,104.78,8.73,115.85,21.74,2.56,3.01,5.31,8.78,8.39,17.65.19.54-.1,1.12-.63,1.31-.11.04-.23.06-.34.06Z"/><g><path class="cls-3" d="m343.25,256.98c.35-1.12,36.72-56.5,36.72-56.5l8.77,6.41-33.23,51.82-12.25-1.73Z"/><g><path class="cls-1" d="m218.03,316.34s-12.73-17.79-7.51-57.63c5.21-39.84,17.96-60.52,31.3-65.24,13.34-4.72,68.2,3.9,72.49,70.84l-96.27,52.03Z"/><path d="m218.04,317.36c-.32,0-.64-.15-.84-.43-.53-.74-12.9-18.57-7.7-58.36,4.77-36.49,16.43-60.57,31.97-66.08,7.21-2.55,25.51-1.29,41.92,9.54,13.31,8.78,29.66,26.71,31.94,62.2.03.4-.18.78-.54.97l-96.27,52.03c-.15.08-.32.12-.49.12Zm31.79-123.97c-3.18,0-5.81.38-7.66,1.04-14.57,5.16-26.02,29.24-30.62,64.41-4.5,34.42,4.61,52.35,6.85,56.13l94.84-51.26c-2.38-34.21-18.13-51.49-30.97-59.96-11.53-7.6-23.92-10.36-32.44-10.36Z"/></g><path d="m256.37,288.59c-.53,0-.99-.41-1.02-.96l-2.64-37.36c-.04-.57.39-1.06.95-1.1.56-.05,1.06.39,1.1.95l2.64,37.36c.04.57-.39,1.06-.95,1.1-.02,0-.05,0-.07,0Z"/><g><path class="cls-1" d="m213.4,306.09s4.62,33.46,51.38,22.26c46.76-11.2,71.14-54.67,71.14-54.67,0,0,27.23-5.82,26.3-23.48,0,0-9.11,2.44-16.86,0-7.75-2.44-16.14.05-19.36,3.08-22.11,20.74-92.73,26.96-112.6,52.81Z"/><path d="m247.12,331.68c-8.78,0-16.17-2.02-22.08-6.06-10.89-7.43-12.58-18.9-12.65-19.39-.04-.27.04-.55.2-.77,11.01-14.33,36.95-22.61,62.04-30.63,20.96-6.69,40.76-13.02,50.66-22.31,3.74-3.5,12.59-5.76,20.38-3.31,7.38,2.32,16.2.01,16.29-.01.3-.08.62-.02.87.16.25.18.41.47.42.78.9,17.27-22.94,23.56-26.66,24.44-1.23,2.09-7.34,12.04-17.96,22.95-10.99,11.29-29.21,25.97-53.6,31.82-6.49,1.55-12.47,2.33-17.91,2.33Zm-32.62-25.32c.41,2.07,2.71,11.44,11.73,17.58,9.07,6.18,21.96,7.32,38.32,3.41,45.76-10.96,70.24-53.74,70.48-54.17.14-.26.39-.44.68-.5.26-.06,25.06-5.55,25.5-21.19-2.84.59-9.86,1.68-16.16-.31-7.48-2.36-15.46.14-18.35,2.85-10.24,9.61-30.26,16-51.44,22.77-24.58,7.85-49.98,15.96-60.76,29.57Z"/></g><path d="m345.56,258.78c-.75,0-1.54-.02-2.35-.05-.57-.02-1.01-.5-.99-1.07.02-.57.51-.99,1.07-.99,13.54.55,17.99-3.84,18.03-3.89.4-.41,1.05-.42,1.45-.02.41.4.42,1.05.02,1.45-.19.2-4.59,4.55-17.24,4.55Z"/><path d="m344.15,265.25c-.3,0-.61,0-.92,0-.57-.01-1.02-.48-1.01-1.05.01-.56.47-1.01,1.03-1.01,0,0,.01,0,.02,0,11.59.22,15.42-3.87,15.46-3.91.38-.42,1.03-.46,1.45-.08.42.37.47,1.02.09,1.44-.17.19-4.17,4.61-16.12,4.61Z"/></g><g><g><path class="cls-1" d="m263.08,162.46c-.35.64-15.31,26.21-15.31,26.21l-10.32,6.93c3.81,2.89,10.53,7.24,19.93,9.73,9.59,2.54,17.73,2.02,22.5,1.36-.41-1.3-1.11-3-2.32-4.77-1.9-2.8-4.18-4.46-5.62-5.35,3.08-5.29,6.16-10.57,9.23-15.86l-18.09-18.26Z"/><path d="m271.99,208.28c-5,0-9.98-.65-14.87-1.95-7.38-1.96-14.21-5.29-20.29-9.91-.26-.2-.42-.52-.41-.85,0-.33.18-.64.45-.82l10.12-6.8c5.2-8.88,14.9-25.47,15.18-25.98.16-.28.44-.48.76-.52.32-.04.65.06.87.29l18.09,18.26c.33.33.39.84.16,1.24l-8.74,15.01c2.02,1.38,3.73,3.09,5.09,5.1,1.05,1.55,1.88,3.24,2.45,5.04.09.29.05.6-.11.86-.16.26-.43.43-.73.47-2.68.37-5.36.56-8.04.56Zm-32.75-12.63c5.57,4.01,11.76,6.94,18.41,8.7,6.83,1.81,13.83,2.31,20.84,1.5-.47-1.18-1.06-2.29-1.77-3.34-1.39-2.04-3.18-3.74-5.31-5.05-.48-.29-.63-.91-.35-1.39l8.84-15.18-16.59-16.74c-2.92,5.02-14.1,24.13-14.64,25.05-.08.13-.19.25-.31.33l-9.11,6.12Zm8.53-6.97h0,0Z"/></g><path d="m308.37,146.13c-6.89-5.66-15.02.25-23.07-6.69-3.69-3.18-4.03-6.19-8.45-7.93-2.93-1.15-8.15-1.94-11.62.7-4.42,3.37-1.17,8.63-4.76,20.43-2.52,8.28-6.01,11.89-4.05,14.79,1.98,2.94,6.59.79,9,3.84,3.11,3.94-2.57,10.11-.8,15.68,1.22,3.83,7.04,9.29,21.66,11.12.81-2.35,2.75-6.99,4.01-11.53,3.96-14.21,1.8-19.65,5.36-21.49,5.45-2.81,12.02,5.87,16.07,3.25,4.2-2.72,3.73-16.38-3.35-22.19Z"/><g><path class="cls-1" d="m279.8,153.09l1.38,4.18s-5.36,13.13-6.31,18.09,14.18,9.09,14.18,9.09l2.38-1.76,4.23,1.06s-.13-14.45,3.75-24.09c0,0-7.15-8.67-19.6-6.56Z"/><path d="m280.68,153.62c.61,1.18,1.11,2.17,1.48,3.32h0c.08.25.06.5-.03.71-1.15,2.84-2.26,5.71-3.32,8.59-1.04,2.87-2.09,5.79-2.8,8.67l-.12.53c-.03.1-.03.15-.03.21,0,.05-.01.11-.02.16.03.22.05.45.18.69.22.49.66,1,1.17,1.45,1.04.91,2.34,1.66,3.66,2.32,2.67,1.31,5.57,2.35,8.45,3.18l-.88.17,2.38-1.76h0s.09-.06.09-.06c.23-.16.52-.19.77-.11l4.15,1.36h0l-.89.7c-.02-2.08.04-4.12.16-6.18.12-2.06.3-4.11.55-6.16.26-2.05.6-4.09,1.03-6.12.46-2.03,1.02-4.04,1.77-6.02h0s.16,1.04.16,1.04c-.5-.57-1.16-1.19-1.81-1.73-.66-.54-1.35-1.05-2.07-1.51-1.44-.93-2.99-1.68-4.62-2.21-1.62-.53-3.3-.91-5.01-.99-.85-.1-1.71-.04-2.56-.03-.5,0-.66.07-.94.02-.26-.04-.55-.14-.91-.23Zm-1.76-1.06c.53-.19,1.13-.41,1.76-.55.61-.14,1.34-.24,1.74-.23.94-.02,1.88-.08,2.82.03,1.88.1,3.74.51,5.52,1.09,1.79.58,3.5,1.41,5.07,2.43.79.51,1.55,1.06,2.28,1.66.73.62,1.4,1.22,2.08,2,.25.28.3.66.18.99l-.02.05h0c-.74,1.83-1.33,3.74-1.82,5.69-.47,1.95-.85,3.93-1.16,5.93-.29,2-.52,4.01-.69,6.03-.16,2.02-.28,4.05-.31,6.06,0,.4-.34.72-.74.72-.04,0-.08,0-.11-.01h-.04s0,0,0,0l-4.3-.75.86-.17h0s-2.38,1.76-2.38,1.76h-.01c-.26.2-.58.25-.87.17-3.04-.88-5.97-1.92-8.83-3.32-1.42-.71-2.83-1.5-4.11-2.62-.63-.57-1.26-1.23-1.68-2.14-.22-.45-.33-.99-.36-1.53l.03-.41c.01-.14.03-.28.05-.36l.13-.59c.76-3.11,1.82-6,2.87-8.92,1.07-2.91,2.18-5.78,3.34-8.66l-.02.71c-.56-1.63-.97-3.42-1.28-5.03Z"/></g><g><path class="cls-1" d="m274.68,164.69s1.33-9.6-3.17-9.28c-4.5.32-5.69,10.93,3.17,9.28Z"/><path d="m272.94,166.23c-2.8,0-4.29-1.28-4.99-2.15-1.4-1.77-1.66-4.51-.64-6.82.83-1.89,2.37-3.09,4.1-3.21,1.21-.08,2.27.32,3.07,1.18,2.45,2.61,1.66,8.94,1.56,9.66-.08.59-.53,1.05-1.11,1.16-.73.14-1.39.19-1.99.19Zm1.74-1.54h0,0Zm-2.95-7.92s-.08,0-.13,0c-.71.05-1.38.64-1.79,1.58-.61,1.38-.49,3.03.28,4.01.79.99,2.11,1.19,3.33,1.1.18-2.32.01-5.35-.95-6.38-.21-.22-.43-.32-.75-.32Z"/></g></g></g><g><path class="cls-2" d="m316.86,105.38c-1.45-.84-3.5-1.79-6.07-2.35-5.07-1.09-9.29.02-11.36.72.71-1.15,1.84-2.7,3.58-4.19,1.47-1.26,2.91-2.08,4.02-2.61-2.3-.96-4.6-1.92-6.9-2.88,1.48-.77,5.79-2.76,11.45-1.97,5.87.82,9.55,4.14,10.72,5.28-1.81,2.66-3.63,5.32-5.44,7.98Z"/><g><path d="m375.71,138.08l9.57-2.56c4.99-5.96,10.34-13.15,15.5-21.63,6.54-10.73,11.15-20.85,14.45-29.53-6.62-5.96-14.48-12.21-23.72-18.18-21.86-14.14-43.01-21.34-58.99-25.2.44,8.46.62,14.32.62,14.32l42.57,82.77Z"/><path d="m375.71,139.45c-.5,0-.98-.28-1.22-.74l-42.57-82.77c-.09-.18-.15-.38-.15-.59,0-.06-.18-5.94-.61-14.29-.02-.43.16-.85.49-1.13.33-.28.78-.38,1.2-.28,21.35,5.15,41.34,13.69,59.41,25.38,8.39,5.43,16.43,11.59,23.89,18.31.42.38.56.98.36,1.51-3.92,10.33-8.82,20.34-14.56,29.76-4.64,7.61-9.89,14.95-15.62,21.79-.18.22-.42.37-.7.45l-9.57,2.56c-.12.03-.24.05-.35.05Zm-41.21-84.5l41.92,81.52,8.08-2.16c5.53-6.65,10.61-13.75,15.1-21.13,5.49-9.01,10.2-18.56,14-28.43-7.15-6.38-14.83-12.24-22.84-17.42-17.31-11.2-36.4-19.46-56.78-24.58.32,6.35.47,10.98.51,12.19Z"/></g><g><path class="cls-1" d="m312.36,111.9l62.99,26.32c5.35-7.88,11.07-17.58,16.21-29.12,3.64-8.17,6.37-15.88,8.45-22.86-6.29-5.03-13.77-10.29-22.62-15.02-14.58-7.8-35.71-16.17-61.89-18.46.34,4.17.57,8.49.66,12.95.38,17.15-1.28,32.68-3.81,46.19Z"/><path d="m375.35,139.25c-.13,0-.27-.03-.4-.08l-62.99-26.32c-.45-.19-.7-.66-.61-1.14,2.85-15.22,4.13-30.69,3.79-45.98-.09-4.28-.32-8.61-.66-12.89-.02-.3.09-.6.3-.81.21-.21.51-.32.81-.29,27.23,2.38,48.9,11.42,62.29,18.58,7.81,4.18,15.26,9.13,22.77,15.13.33.26.46.7.34,1.1-2.32,7.81-5.18,15.55-8.5,22.99-4.54,10.19-10.02,20.04-16.3,29.28-.2.29-.52.45-.85.45Zm-61.83-27.98l61.45,25.68c6.01-8.94,11.28-18.45,15.65-28.27,3.18-7.15,5.94-14.57,8.2-22.07-7.23-5.73-14.4-10.47-21.92-14.49-13.02-6.96-33.97-15.72-60.29-18.23.29,3.92.49,7.88.57,11.79.33,15.16-.9,30.5-3.68,45.59Z"/></g><path class="cls-2" d="m323.09,108.24s3.7-31.84,3.39-43.41c9.39.31,16.31,3.58,16.31,3.58,0,0-1.32,25.67-8.62,43.41-4.22-.87-11.08-3.58-11.08-3.58Z"/></g><g><g><path class="cls-1" d="m415.86,149.87l44.7-29.64s21,2.28,25.58,27.62c13.27-.1,26.17,4.47,33.64,25.79-22.52,14.71-48.89,34.3-48.89,34.3l-25.35-30.47-29.67-27.6Z"/><path d="m470.89,208.97c-.3,0-.59-.13-.79-.37l-25.31-30.42-29.63-27.56c-.23-.21-.35-.52-.32-.84.03-.31.19-.6.46-.77l44.7-29.64c.2-.13.44-.19.68-.17.22.02,21.35,2.61,26.32,27.62,10.79.07,25.59,3.19,33.76,26.48.16.45-.01.94-.41,1.2-22.23,14.52-48.58,34.07-48.84,34.27-.18.14-.4.2-.61.2Zm-53.37-58.97l28.72,26.71s.06.06.09.09l24.73,29.73c4.5-3.32,27.51-20.23,47.48-33.32-7.9-21.72-21.43-24.45-32.39-24.35-.51,0-.93-.35-1.02-.85-4.11-22.75-21.5-26.31-24.32-26.73l-43.29,28.71Z"/></g><g><path class="cls-2" d="m415.86,149.87s2.65,4.32.54,12.41c8.37,2.35,20.3,8.87,27.9,20.32,9.58,6.39,15.26,10.56,19.21,28.37,2.55-1.38,7.37-3.02,7.37-3.02,0,0,.81-23.04-23.64-31.76-4.54-15.52-25.59-24.69-31.39-26.32Z"/><path d="m463.52,212c-.15,0-.29-.03-.43-.09-.29-.13-.51-.4-.58-.71-3.96-17.86-9.86-21.79-18.78-27.74-.11-.08-.21-.17-.29-.29-7.36-11.08-18.94-17.54-27.33-19.9-.54-.15-.86-.71-.72-1.25,1.95-7.5-.4-11.58-.43-11.62-.22-.36-.19-.82.06-1.15.26-.33.69-.48,1.09-.37,5.51,1.55,26.89,10.55,31.94,26.52,24.38,9,23.84,32.35,23.83,32.58-.02.43-.29.8-.69.94-.05.02-4.76,1.64-7.21,2.96-.15.08-.32.12-.49.12Zm-18.47-30.14c9.83,6.56,15.27,10.94,19.18,27.61,1.97-.92,4.44-1.83,5.63-2.25-.08-3.89-1.59-22.44-22.96-30.06-.31-.11-.55-.36-.64-.68-3.99-13.65-21.45-22.28-28.64-24.94.58,2.02,1.05,5.4,0,10.03,8.6,2.65,20.02,9.26,27.42,20.29Zm25.84,26.09h0,0Z"/></g><path d="m444.86,183c-.13,0-.26-.03-.39-.08-.53-.22-.78-.82-.56-1.34l2.38-5.78c.07-.18.19-.33.35-.44l38.89-28.34c.46-.33,1.1-.23,1.44.23.33.46.23,1.1-.23,1.44l-38.66,28.17-2.27,5.51c-.16.4-.55.64-.95.64Z"/><path d="m509.52,173.59c-.37,0-.73-.2-.92-.56-4.96-9.64-11.89-15.19-21.21-16.99-.56-.11-.92-.65-.81-1.2.11-.56.64-.92,1.2-.81,9.98,1.93,17.39,7.84,22.65,18.07.26.51.06,1.12-.44,1.38-.15.08-.31.11-.47.11Z"/><path d="m503.29,177.81c-.37,0-.73-.2-.92-.56-4.96-9.64-11.89-15.19-21.21-16.99-.56-.11-.92-.65-.81-1.2.11-.56.64-.92,1.2-.81,9.98,1.92,17.39,7.84,22.65,18.07.26.51.06,1.12-.44,1.38-.15.08-.31.11-.47.11Z"/><path d="m458.91,160.49c-.41,0-.8-.25-.96-.65-4.62-11.65-13.44-16.15-18.28-17.8-.54-.18-.83-.77-.64-1.3.18-.54.77-.83,1.3-.64,5.18,1.76,14.61,6.57,19.53,18.99.21.53-.05,1.13-.58,1.33-.12.05-.25.07-.38.07Z"/><path d="m452.86,164.98c-.41,0-.8-.25-.96-.65-4.62-11.65-13.44-16.15-18.28-17.8-.54-.18-.83-.77-.64-1.3.18-.54.77-.82,1.3-.64,5.18,1.76,14.61,6.57,19.53,18.99.21.53-.05,1.13-.58,1.33-.12.05-.25.07-.38.07Z"/></g><path d="m21.41,351.82c-.36,0-.71-.19-.9-.53-11.3-20.24-18-41.82-19.94-64.14-5.3-61.24,27.59-107.35,41.98-124.34.37-.43,1.02-.49,1.45-.12.43.37.49,1.02.12,1.45-14.22,16.79-46.73,62.36-41.5,122.83,1.91,22.03,8.53,43.33,19.68,63.32.28.5.1,1.12-.4,1.4-.16.09-.33.13-.5.13Z"/><path d="m525.05,262.86c-.49,0-.92-.35-1.01-.84-3.71-20.04-10.42-39.57-19.95-58.05-.26-.5-.06-1.12.44-1.39.51-.26,1.12-.06,1.39.44,9.62,18.66,16.39,38.38,20.14,58.62.1.56-.27,1.09-.82,1.2-.06.01-.13.02-.19.02Z"/><path d="m31.15,331.23c-.38,0-.75-.21-.92-.58-7.56-15.49-15.9-40.42-12.65-71.21,2.83-26.86,13.48-47.3,21.92-59.72.32-.47.96-.59,1.43-.27.47.32.59.96.27,1.43-8.3,12.23-18.79,32.35-21.57,58.78-3.2,30.3,5.01,54.84,12.45,70.09.25.51.04,1.13-.47,1.38-.15.07-.3.1-.45.1Z"/><path d="m515.03,290.95c-.54,0-1-.43-1.03-.98-1.34-27.33-8.58-53.75-21.52-78.53-.26-.5-.07-1.12.44-1.39.5-.26,1.12-.07,1.39.44,13.08,25.05,20.4,51.76,21.75,79.39.03.57-.41,1.05-.98,1.08-.02,0-.03,0-.05,0Z"/></g></svg>