<?xml version="1.0" encoding="UTF-8"?><svg id="Warstwa_1" xmlns="http://www.w3.org/2000/svg" viewBox="0 0 570 570"><defs><style>.cls-1{fill:#fff;}.cls-2{fill:#ff506f;}.cls-3{fill:#caddff;}.cls-4,.cls-5{fill:#112a93;}.cls-6{fill:#5479f7;}.cls-5{opacity:.25;}</style></defs><g id="Blog_articles"><path class="cls-5" d="m143.12,53.44c-3.78,2.23-7.04,5.22-10.63,7.75C102.21,82.46-12.57,159.3,1.13,330.19c19.43,242.37,119.27,238.47,268.36,238.47s260.01,21.03,291.09-103.82c31.59-126.88-25.58-133.28-35.52-278.02S434.02-11.79,314.92,2.12c-74.66,8.72-118.75,20.03-171.8,51.33Z"/><g><g><path class="cls-4" d="m321.97,188.6c-.27,0-.53-.1-.73-.31l-3.38-3.41c-.4-.4-.4-1.06,0-1.46.4-.4,1.06-.4,1.46,0l3.38,3.41c.4.4.4,1.06,0,1.46-.2.2-.46.3-.73.3Z"/><path class="cls-4" d="m333.81,200.52c-.27,0-.53-.1-.73-.31l-3.38-3.41c-.4-.4-.4-1.06,0-1.46.4-.4,1.06-.4,1.46,0l3.38,3.41c.4.4.4,1.06,0,1.46-.2.2-.46.3-.73.3Z"/><path class="cls-4" d="m318.59,200.52c-.26,0-.53-.1-.73-.3-.4-.4-.41-1.06,0-1.46l3.38-3.41c.4-.41,1.06-.41,1.46,0,.4.4.41,1.06,0,1.46l-3.38,3.41c-.2.2-.47.31-.73.31Z"/><path class="cls-4" d="m330.42,188.6c-.26,0-.53-.1-.73-.3-.4-.4-.41-1.06,0-1.46l3.38-3.41c.4-.41,1.06-.41,1.46,0,.4.4.41,1.06,0,1.46l-3.38,3.41c-.2.2-.47.31-.73.31Z"/></g><path class="cls-4" d="m355.39,243.72c-3.96,0-7.18-3.24-7.18-7.22s3.22-7.22,7.18-7.22,7.18,3.24,7.18,7.22-3.22,7.22-7.18,7.22Zm0-12.37c-2.82,0-5.11,2.31-5.11,5.15s2.29,5.15,5.11,5.15,5.11-2.31,5.11-5.15-2.29-5.15-5.11-5.15Z"/><path class="cls-4" d="m532.29,114.04c-.23,0-.45-.07-.64-.23-.45-.36-.52-1.01-.16-1.45,10.52-13.13,17.1-28.97,19.03-45.82.07-.57.58-.97,1.14-.91.57.07.97.58.91,1.14-1.98,17.23-8.71,33.44-19.47,46.87-.2.25-.5.39-.81.39Z"/><path class="cls-4" d="m469.27,550.31c-.43,0-.84-.27-.98-.71-.18-.54.11-1.13.66-1.3,21.68-7.17,40.86-20.37,55.46-38.19.36-.44,1.01-.51,1.45-.14.44.36.51,1.01.14,1.45-14.84,18.12-34.35,31.55-56.41,38.84-.11.04-.22.05-.32.05Z"/><path class="cls-4" d="m504.45,559.65c-.39,0-.77-.22-.94-.61-.24-.52,0-1.13.51-1.37,15.26-6.95,28.23-18.11,37.48-32.27.31-.48.95-.61,1.43-.3.48.31.61.95.3,1.43-9.47,14.49-22.74,25.9-38.36,33.01-.14.06-.28.09-.43.09Z"/><path class="cls-4" d="m290.18,48.54c-.12,0-.25-.02-.37-.07-5.43-2.07-11.14-3.79-16.97-5.11-.56-.13-.9-.68-.78-1.24.13-.56.68-.91,1.24-.78,5.92,1.34,11.73,3.09,17.25,5.2.53.2.8.8.6,1.33-.16.41-.55.66-.96.66Z"/><path class="cls-4" d="m203.11,44.44c-.47,0-.89-.32-1-.8-.13-.56.22-1.11.77-1.24,20.71-4.81,40.95-5.81,60.15-2.98.56.08.95.61.87,1.17-.08.56-.61.95-1.17.87-18.94-2.8-38.92-1.81-59.38,2.95-.08.02-.16.03-.23.03Z"/><path class="cls-4" d="m105.58,102.88c-.29,0-.58-.12-.78-.36-.37-.43-.33-1.08.1-1.46,5.59-4.84,11.44-9.44,17.41-13.66.46-.33,1.11-.22,1.44.24.33.47.22,1.11-.25,1.44-5.91,4.19-11.71,8.75-17.25,13.54-.2.17-.44.25-.68.25Z"/><path class="cls-4" d="m32.98,260.7c-.53,0-.99-.41-1.03-.95-1.1-14.19-.08-28.96,3.02-43.9.12-.56.66-.92,1.22-.8.56.12.92.66.8,1.22-3.06,14.75-4.06,29.33-2.98,43.32.04.57-.38,1.06-.95,1.11-.03,0-.05,0-.08,0Z"/><path class="cls-4" d="m385.56,92.69s-.05,0-.08,0c-.57-.04-.99-.54-.95-1.11.04-.54.07-1.07.1-1.61,1.15-25.48-16.3-47.89-41.51-53.3l-17.55-3.76c-.56-.12-.91-.67-.79-1.23.12-.56.67-.91,1.23-.79l17.55,3.76c12.52,2.69,23.78,9.73,31.69,19.82,7.96,10.16,12.03,22.8,11.45,35.58-.02.56-.06,1.11-.1,1.67-.04.54-.49.96-1.03.96Z"/><path class="cls-4" d="m404.3,83.71s-.05,0-.07,0c-.57-.04-1-.53-.96-1.1l.36-5.11c1.09-15.42-1.97-30.87-8.87-44.68-.25-.51-.05-1.13.46-1.38.51-.25,1.13-.05,1.38.46,7.06,14.14,10.2,29.96,9.08,45.75l-.36,5.11c-.04.54-.49.96-1.03.96Z"/><path class="cls-4" d="m448.87,523.84c-.42,0-.81-.25-.97-.67-.2-.53.07-1.13.6-1.33,3.58-1.36,7.19-2.81,10.7-4.31.53-.22,1.13.02,1.35.55.22.53-.02,1.13-.55,1.35-3.54,1.51-7.17,2.96-10.78,4.34-.12.05-.24.07-.37.07Z"/><path class="cls-4" d="m388.23,541.08c-.47,0-.9-.33-1.01-.81-.12-.56.23-1.11.78-1.23,12.37-2.74,27.04-6.17,41.99-10.83.55-.17,1.12.14,1.29.68.17.54-.14,1.12-.68,1.29-15.02,4.67-29.74,8.12-42.15,10.87-.08.02-.15.02-.22.02Z"/></g><g><path class="cls-6" d="m170.99,79.49l-23.46-2.86c-2.89-.35-5.72,1.02-7.25,3.52l-7.75,12.69-5.94-14.85c-1.02-2.54-3.32-4.32-6.02-4.65l-21.58-2.63c-4.09-.5-7-4.24-6.5-8.36l5.55-46.12c.5-4.12,4.21-7.05,8.3-6.55l71.99,8.78c4.09.5,7,4.24,6.5,8.36l-5.55,46.12c-.5,4.12-4.21,7.05-8.3,6.55Z"/><path class="cls-1" d="m148.63,48.64c-2.24-.28-4.35.57-5.83,2.07l-12.85-6.9c.04-.18.1-.34.12-.52.04-.34.03-.67.02-1l14.61-4.72c1.1,1.62,2.83,2.78,4.91,3.04,3.85.48,7.36-2.29,7.83-6.16.47-3.87-2.27-7.41-6.12-7.89s-7.36,2.29-7.83,6.16c-.04.34-.03.67-.02,1l-14.61,4.72c-1.1-1.62-2.83-2.78-4.91-3.04-3.85-.48-7.36,2.29-7.83,6.16-.47,3.87,2.27,7.41,6.12,7.89,2.24.28,4.35-.57,5.83-2.07l12.85,6.9c-.04.18-.1.34-.12.52-.47,3.87,2.27,7.41,6.12,7.89s7.36-2.29,7.83-6.16c.47-3.87-2.27-7.41-6.12-7.89Z"/></g><g><path class="cls-6" d="m91.62,123.79l-15.15,7.03c-1.87.87-3.06,2.75-3.06,4.82v10.52s-9.02-6.71-9.02-6.71c-1.54-1.15-3.59-1.36-5.33-.55l-13.94,6.46c-2.64,1.22-5.77.06-6.98-2.6l-13.63-29.79c-1.22-2.66-.06-5.81,2.58-7.03l46.5-21.57c2.64-1.22,5.77-.06,6.98,2.6l13.63,29.79c1.22,2.66.06,5.81-2.58,7.03Z"/><path class="cls-1" d="m64.22,105.51c-1.55-.67-3.26-.65-4.82.06-1.16.53-2.06,1.38-2.67,2.53-.31.58-.54,1.23-.68,1.92-.61-.36-1.24-.61-1.88-.77-1.26-.31-2.49-.19-3.65.33-1.56.7-2.71,1.98-3.24,3.59-.53,1.59-.41,3.39.33,5.05.77,1.72,2.1,3,4.2,4.04,1.88.93,4.3,1.64,7.11,2.46.96.28,2.04.6,3.18.95.3.09.62.07.91-.06s.52-.36.65-.65c.49-1.09.98-2.12,1.41-3.03,1.25-2.66,2.33-4.95,2.89-6.99.62-2.27.56-4.13-.21-5.84-.74-1.67-2-2.95-3.53-3.61Z"/></g><g><g><g><path class="cls-1" d="m388.93,111.32s2.37,1.05,6.01.66c3.07-.33,22.79-6.28,30.93-32.44,0,0,41.47,6.96,62.53,5.3,21.06-1.66,32.4-3.35,32.4-3.35,0,0-12.65,65.5-59.06,62.19,0,0-13.53-.84-13.61-.85-1.91-.17-26.57-2.34-35.43-2.97-9.22-.66-33.9,2.98-52-2.98-18.1-5.97-27.32-14.92-57.93-29.17-4.48-2.09-17.55-5.95-17.55-5.95-3.4,6.52-5.3,14.83-6,26.14-4.25,68.88-18.11,85.18-30.03,84.27,0,0-7.12-.85-7.44-.88-3.29-.36-22.92-2.43-50.78-3.47-.02,0-3.25-.06-3.27-.07h.02c1.41,16.89,7.21,37.04,20.46,57.4,29.89,45.9,35.28,117.09,15.07,114.5,0,0-23.97-1.85-49.3-1.79-.09,0-151.39-1.46-151.39-1.46,0,0-51.49-113.4,43.41-99.33,1.13.17,2.49.24,3.62.31,0,0-11.4-25.67-17.48-58.12-3.86-20.58,2.95-51.29,35.64-51.62,19.87-.2,64.72,4.03,64.72,4.03,0,0,2.8-3.66,2.87-3.76,1.64-2.56,18.44-23.99,32.23-59.35,14.25-36.53,77.15-20.05,110.73-22.63.3-.02,13.02-.97,13.02-.97,21.32-1.43,50.26,12.1,77.58,26.35l.03.02Z"/><path class="cls-4" d="m224.3,380.77c-.38,0-.78-.03-1.17-.08-.19-.01-24.17-1.82-49.17-1.78-.09,0-126.14-1.21-151.4-1.46-.4,0-.76-.24-.93-.61-.07-.15-6.8-15.08-10.89-33.2-5.53-24.49-3.86-42.84,4.95-54.53,9.24-12.25,26.21-16.65,50.44-13.05.57.09,1.21.15,1.86.19-2.53-6.06-11.7-29.1-16.89-56.8-2.23-11.91-1.19-28.8,8.42-40.51,6.63-8.07,16.12-12.22,28.22-12.34,18.48-.18,58.97,3.49,64.26,3.98,1.02-1.34,2.38-3.12,2.49-3.27.18-.28.56-.82,1.15-1.63,12.48-17.47,22.9-36.82,30.97-57.51,10.86-27.83,48.31-25.72,81.36-23.85,11.15.63,21.69,1.22,30.26.57.29-.02,13.02-.97,13.02-.97,21.31-1.43,50.15,11.87,78.14,26.46,0,0,.01,0,.02,0,.34.13,2.42.88,5.43.56.21-.02,21.42-3.96,30.06-31.73.15-.49.65-.79,1.16-.71.41.07,41.59,6.92,62.28,5.29,20.78-1.63,32.21-3.32,32.33-3.34.33-.05.67.07.9.31.23.24.33.58.27.91-.03.17-3.3,16.72-12.24,32.65-11.24,20.01-26.58,30.49-44.53,30.5-1.12,0-2.24-.04-3.37-.12-6.17-.38-13.55-.84-13.62-.85-.26-.02-26.34-2.32-35.41-2.97-2.55-.18-6.42-.02-10.9.16-11.89.49-28.19,1.15-41.35-3.19-9.86-3.25-17.19-7.42-26.47-12.7-7.8-4.44-17.51-9.96-31.57-16.51-3.72-1.73-13.65-4.77-16.58-5.65-3.09,6.26-4.84,14.23-5.5,24.97-2.74,44.44-9.74,71.86-20.79,81.49-3.17,2.77-6.66,4.02-10.35,3.75-.04,0-7.15-.85-7.47-.89-3.61-.4-23.04-2.43-50.7-3.46l-1.6-.03c-.16,0-.33,0-.48-.01,1.28,13.5,5.87,33.78,20.19,55.78,24.35,37.4,33.57,94.46,22.95,111.39-1.97,3.14-4.62,4.78-7.71,4.78Zm-49.16-3.92c24.65,0,47.97,1.77,48.2,1.79,2.87.36,5.11-.86,6.92-3.74,4.76-7.58,5.33-25.18,1.49-45.94-4.23-22.85-13.13-45.9-24.41-63.23-14.9-22.89-19.44-43.98-20.61-57.7-.02-.08-.03-.17-.03-.26,0-.55.43-1.01.99-1.04.03,0,.05,0,.08,0l1.64.03c.81.02,1.62.03,1.63.03,27.74,1.03,47.23,3.07,50.85,3.47.32.04,7.45.88,7.45.88,3.08.23,6.05-.86,8.79-3.25,7.3-6.37,16.72-25.42,20.09-80.06.71-11.48,2.65-19.92,6.11-26.56.23-.44.73-.65,1.21-.51.54.16,13.19,3.91,17.69,6.01,14.14,6.58,23.89,12.13,31.72,16.59,9.18,5.22,16.43,9.35,26.09,12.53,12.81,4.22,28.89,3.57,40.62,3.09,4.54-.19,8.47-.34,11.13-.15,9.09.65,34.37,2.88,35.45,2.97.19.01,8.97.56,13.58.84,18.82,1.35,34.29-8.52,45.97-29.32,7.27-12.95,10.72-26.3,11.7-30.61-3.72.5-14.39,1.84-31,3.15-19.24,1.52-55.76-4.18-61.9-5.17-8.11,24.87-26.89,31.81-31.54,32.31-3.87.41-6.43-.7-6.54-.75-.05-.02-.09-.04-.13-.07-27.71-14.44-56.21-27.63-77-26.21,0,0-12.71.95-13.01.97-8.71.67-19.31.07-30.53-.56-32.34-1.83-69-3.9-79.32,22.54-8.13,20.85-18.64,40.35-31.22,57.96-.54.76-.93,1.31-1.11,1.58-.03.04-.09.14-2.92,3.84-.22.28-.56.43-.92.4-.45-.04-45.03-4.23-64.61-4.02-11.46.12-20.43,4.01-26.65,11.59-9.16,11.15-10.13,27.36-7.99,38.81,5.99,31.96,17.3,57.64,17.41,57.89.15.33.11.71-.09,1.01-.2.3-.54.47-.91.44h-.17c-1.13-.08-2.42-.15-3.54-.32-23.43-3.47-39.74.65-48.49,12.25-19.08,25.31,3.19,78.77,5.9,85.03,10.94.1,150.29,1.45,150.72,1.45.39,0,.78,0,1.17,0Z"/></g><path class="cls-4" d="m96.8,280.58c-7.99,0-15.63-.41-22.25-1.44-.56-.09-.95-.62-.86-1.18.09-.56.62-.94,1.18-.86,31.94,4.99,88.54-4.72,89.11-4.82.56-.1,1.1.28,1.19.84s-.28,1.1-.84,1.19c-.45.08-36.54,6.27-67.54,6.27Z"/><path class="cls-4" d="m157.1,172.84c-1.7,0-3.37-.06-5.01-.18-.57-.04-1-.53-.96-1.1.04-.57.53-1.01,1.1-.96,11.68.83,24.84-1.37,40.23-6.74.54-.19,1.13.1,1.32.63.19.54-.1,1.13-.64,1.32-13.5,4.71-25.35,7.02-36.04,7.02Z"/><path class="cls-4" d="m224.31,380.77c-2.68,0-6.09-1.23-10.33-4.78-14.03-11.74-18.97-36.24-23.33-57.86-5.09-25.24-9.48-47.03-25.93-43.91-5.15.98-9.22,3.86-12.08,8.55-8.68,14.25-4.91,42.35.96,62.09.16.55-.15,1.12-.7,1.28-.55.17-1.12-.15-1.28-.7-6.27-21.11-9.76-48.94-.74-63.75,3.17-5.21,7.7-8.41,13.45-9.5,18.45-3.51,23.26,20.31,28.34,45.53,4.29,21.28,9.15,45.4,22.63,56.68,5.52,4.62,9.94,5.52,13.13,2.69,5.93-5.26,7.48-22.69,3.95-44.4-3.92-24.11-13.06-48.52-25.06-66.96-25.82-39.66-24.11-80.17-14.64-96.27,2.5-4.26,5.51-6.49,8.45-6.29,8.48.59,16.9,13,25.05,24.99,4.05,5.97,7.87,11.6,11.27,15.02,2.06,2.08,9.4,8.62,17.25,5.6,9.14-3.52,20.64-20.41,23.5-80.92.03-.57.52-1.01,1.08-.98.57.03,1.01.51.98,1.08-2.34,49.47-10.69,77.32-24.82,82.75-9.02,3.47-17.17-3.77-19.46-6.07-3.53-3.55-7.41-9.27-11.51-15.31-7.5-11.05-16-23.57-23.48-24.09-2.13-.14-4.44,1.73-6.52,5.27-9.2,15.64-10.75,55.18,14.59,94.1,12.16,18.67,21.41,43.37,25.37,67.75,3.7,22.74,1.93,40.48-4.61,46.28-1.32,1.17-3.12,2.13-5.5,2.13Z"/><path class="cls-4" d="m285.49,102.46c-.2,0-.4-.06-.58-.18-.47-.32-.59-.96-.27-1.44,0,0,.07-.13.17-.31.44-.81.94-1.7,1.22-2.11,4.57-6.73,11.57-13.73,28.77-14.6.59-.02,1.06.41,1.08.98.03.57-.41,1.05-.98,1.08-16.3.82-22.88,7.39-27.17,13.7-.25.36-.83,1.43-1.12,1.94-.15.26-.25.45-.27.47-.2.29-.52.45-.85.45Z"/><path class="cls-4" d="m468.96,144.63c-3.24,0-13.58-.75-23.35-4.26-10.14-3.64-24.28-11.03-39.26-18.86-6.09-3.18-12.38-6.48-18.32-9.46-.51-.26-.72-.88-.46-1.39.26-.51.88-.72,1.39-.46,5.96,2.99,12.26,6.29,18.35,9.47,14.91,7.8,28.99,15.16,39,18.75,9.74,3.49,20.03,4.18,22.87,4.13h.01c.56,0,1.03.45,1.03,1.02,0,.57-.45,1.04-1.02,1.05-.07,0-.15,0-.24,0Z"/><path class="cls-4" d="m155.21,169.17c-.11,0-.22-.02-.32-.05-.54-.18-.84-.76-.66-1.3.1-.29.3-.59,1.4-2.12,12.48-17.47,22.9-36.82,30.97-57.51,10.86-27.83,48.31-25.72,81.36-23.85,11.54.65,22.45,1.27,31.17.49.56-.05,1.07.37,1.12.94s-.37,1.07-.94,1.12c-8.88.79-19.85.17-31.47-.49-32.34-1.83-69-3.9-79.32,22.54-8.13,20.85-18.64,40.35-31.22,57.96-.53.75-1.04,1.46-1.15,1.65-.16.39-.54.63-.95.63Zm.98-.71s-.01.04-.02.06c.01-.02.02-.04.02-.06Z"/><path class="cls-4" d="m242.25,212.38s-.08,0-.12,0c-.21-.02-21.01-2.39-51.25-3.52-.57-.02-1.01-.5-.99-1.07s.5-1.02,1.07-.99c30.32,1.13,51.2,3.5,51.41,3.53.57.07.97.58.91,1.14-.06.53-.51.91-1.02.91Z"/></g><g><path class="cls-4" d="m91.8,300.53c-27.21,0-58.13-1.51-60.08-1.61-.57-.03-1.01-.51-.98-1.08.03-.57.52-1.01,1.08-.98.72.03,72.42,3.55,94.36.01.56-.1,1.09.29,1.18.86.09.56-.29,1.09-.86,1.18-7.56,1.22-20.64,1.62-34.72,1.62Z"/><path class="cls-4" d="m108.85,318.17c-.56,0-1.02-.45-1.03-1.02,0-.57.45-1.04,1.02-1.05,5.3-.07,9.68-.2,13.01-.38.57-.02,1.06.41,1.09.98.03.57-.41,1.06-.98,1.09-3.36.18-7.76.31-13.09.39h-.01Z"/><path class="cls-4" d="m94.23,318.25h0c-30.13-.05-68.79-1.12-69.18-1.14-.57-.02-1.02-.49-1-1.06.02-.57.52-1.03,1.06-1,.39.01,39.02,1.09,69.12,1.13.57,0,1.03.46,1.03,1.03s-.46,1.03-1.03,1.03Z"/><path class="cls-4" d="m124.12,336.21H27.31c-.57,0-1.03-.46-1.03-1.03s.46-1.03,1.03-1.03h96.81c.57,0,1.03.46,1.03,1.03s-.46,1.03-1.03,1.03Z"/><path class="cls-2" d="m95.93,175.45l40.46,3.12c6.74.52,13.5.61,20.25.26l13.04-.67c2.93-.15,5.23,2.51,4.65,5.41-1.44,7.29-3.29,20.42-1.12,32.86.49,2.82-1.68,5.4-4.52,5.34l-99.43-1.92c-2.2-.04-4.06-1.68-4.38-3.87-.59-4.06-1.1-10.9.47-18.05,3.09-14.1,16.28-23.58,30.57-22.48Z"/><path class="cls-4" d="m102.04,234.5c-1.98,0-3.98-.06-5.95-.18l-28.24-1.75c-.57-.03-1-.53-.97-1.09s.53-.99,1.09-.97l28.24,1.75c2.13.13,4.29.19,6.43.18l21.3-.14h0c.57,0,1.03.46,1.03,1.03,0,.57-.46,1.04-1.03,1.04l-21.3.14c-.21,0-.41,0-.62,0Z"/><path class="cls-4" d="m94.16,266.16c-2.9,0-5.81-.16-8.68-.46l-7.26-.78c-.57-.06-.98-.57-.92-1.14.06-.57.57-.98,1.14-.92l7.26.78c3.26.35,6.58.5,9.86.44l4.19-.08c.58.02,1.04.44,1.05,1.01.01.57-.44,1.04-1.01,1.05l-4.19.08c-.48,0-.95.01-1.43.01Z"/><path class="cls-4" d="m120.91,251.59c-12.74,0-25.5-.62-38.13-1.87l-9.91-.98c-.57-.06-.98-.56-.93-1.13.06-.57.56-.98,1.13-.93l9.91.98c19.01,1.87,38.31,2.33,57.38,1.37l40.52-2.05c.56-.02,1.05.41,1.08.98.03.57-.41,1.05-.98,1.08l-40.52,2.05c-6.5.33-13.02.49-19.56.49Z"/><path class="cls-4" d="m256.63,187.72s-.04,0-.06,0l-27.66-1.57c-.57-.03-1-.52-.97-1.09.03-.57.52-.99,1.09-.97l27.66,1.57c.57.03,1,.52.97,1.09-.03.55-.49.97-1.03.97Z"/><path class="cls-4" d="m259.75,170.87s-.03,0-.05,0l-41.04-1.8c-.57-.03-1.01-.51-.99-1.08.03-.57.52-1.01,1.08-.99l41.04,1.8c.57.03,1.01.51.99,1.08-.02.55-.48.99-1.03.99Z"/><path class="cls-4" d="m262.13,152.3s-.02,0-.03,0l-82.98-2.7c-.57-.02-1.02-.5-1-1.07.02-.57.51-1.02,1.07-1l82.98,2.7c.57.02,1.02.5,1,1.07-.02.56-.48,1-1.03,1Z"/><path class="cls-4" d="m265.1,134.33s-.06,0-.08,0c-18.48-1.48-74.88-.9-75.45-.9h-.01c-.57,0-1.03-.46-1.03-1.02,0-.57.45-1.04,1.02-1.04.57,0,57.07-.58,75.64.9.57.05.99.54.95,1.11-.04.54-.5.95-1.03.95Z"/><path class="cls-2" d="m199.92,116.82h66.6c.89,0,1.67-.61,1.88-1.48.82-3.42,3.24-11.99,8.11-17.7,1.05-1.24.27-3.14-1.35-3.22-12.02-.59-44.91-1.87-59.52,1.06-1.16.23-2.26.65-3.27,1.27-3.53,2.13-11.95,8.1-14.33,17.66-.31,1.23.62,2.43,1.88,2.43Z"/><path class="cls-4" d="m481.16,99.29c-23.06,0-47.27-3.86-47.59-3.92-.56-.09-.95-.62-.85-1.18.09-.56.62-.95,1.18-.85.42.07,42.66,6.81,68.36,2.4.56-.09,1.1.28,1.19.84.1.56-.28,1.1-.84,1.19-6.44,1.1-13.89,1.52-21.45,1.52Z"/><path class="cls-4" d="m485.69,114.7c-29.45,0-62.77-5.78-63.13-5.84-.56-.1-.94-.63-.84-1.2.1-.56.64-.94,1.2-.84.39.07,39.52,6.85,70.27,5.68.58-.02,1.05.42,1.07.99s-.42,1.05-.99,1.07c-2.48.09-5.02.14-7.58.14Z"/><path class="cls-4" d="m474.73,130.34c-13.53,0-29.87-2.92-30.69-3.06-.56-.1-.93-.64-.83-1.2.1-.56.64-.93,1.2-.83.23.04,23.66,4.22,37.4,2.69.57-.07,1.08.34,1.14.91.06.57-.34,1.08-.91,1.14-2.25.25-4.73.36-7.31.36Z"/></g></g><g><g><path class="cls-2" d="m71.24,518.23h243.55c7.44,0,13.47-6.03,13.47-13.47H57.77c0,7.44,6.03,13.47,13.47,13.47Z"/><path class="cls-2" d="m57.77,499.1h157.69l-50.1-148.4c-3-4.64-8.22-7.46-13.84-7.46H18.22c-6.05,0-9.94,5.91-7.97,11.12.78,2.07,1.63,4.12,2.32,6.23l45.2,138.51Z"/><path class="cls-1" d="m116.7,424.97c1.96,6.53-1.03,13.22-6.68,14.94-5.65,1.71-11.81-2.19-13.77-8.73-1.96-6.53,1.03-13.22,6.68-14.94,5.65-1.71,11.81,2.19,13.77,8.73Z"/><path class="cls-2" d="m191.49,504.75h-110.31c-.57,0-1.03-.46-1.03-1.03s.46-1.03,1.03-1.03h110.31c.57,0,1.03.46,1.03,1.03s-.46,1.03-1.03,1.03Z"/><path class="cls-2" d="m69.14,504.75h-12.83c-.57,0-1.03-.46-1.03-1.03s.46-1.03,1.03-1.03h12.83c.57,0,1.03.46,1.03,1.03s-.46,1.03-1.03,1.03Z"/></g><path class="cls-2" d="m160.9,563.68c-25.97,0-47.54-1.38-64.52-4.15-25.84-4.21-41.16-11.63-45.53-22.05-5.77-13.77,9.48-27.29,10.14-27.86.43-.37,1.08-.33,1.46.1.37.43.33,1.08-.1,1.46-.15.13-14.79,13.11-9.59,25.51,5.15,12.28,29.46,24.95,107.82,24.95,23.43,0,51.68-1.13,85.7-3.75,23.91-1.84,67.64-6.1,90.1-10.3.56-.11,1.1.26,1.2.83.1.56-.26,1.1-.83,1.2-22.54,4.22-66.37,8.48-90.33,10.33-32.35,2.49-60.93,3.73-85.54,3.73Z"/></g><g><g><path class="cls-6" d="m509.97,287.66s37.27,2.31,52.35,22.61c10,13.46,9.07,41.06,3.77,81.34-3.5,26.57-9.94,39.8-16.15,56.12-15.63,41.09-39.6,52.33-64.69,54.63-31.31,2.87-141.9,1.3-168.06.87-3.01-.05-5.73-1.77-7.1-4.47l-1.69-3.34c-1.78-3.53-2.27-14.46-1.49-20.29.49-3.65,2.58-6.95,5.81-8.69.73-.39,1.47-.67,2.14-.72l52.37-6s50.73-65.09,27.69-96.45c-8.29-11.29-46.62,12.77-80.1,7.95-28.35-4.08-58.99-53.63-67.71-68.72-1.76-3.04-2.36-6.62-1.67-10.06,1.07-5.34,3.6-12.95,9.51-16.2,4.94-2.72,14.17-7.33,22.88,1.79,0,0,21.84,32.98,48.15,33.78,26.3.8,55.25-34.94,140.23-28.8l43.75,4.66Z"/><path class="cls-3" d="m366.52,459.75c-.53,0-.98-.41-1.03-.94-.05-.57.37-1.07.94-1.12,51.06-4.46,137.88-23.76,145.66-102.98.06-.57.56-.98,1.13-.93.57.06.98.56.93,1.13-3.73,38.02-25.8,66.59-65.58,84.9-22.73,10.46-50.3,17.17-81.96,19.94-.03,0-.06,0-.09,0Z"/><path class="cls-4" d="m262.49,305.84c-7.76,0-12.78-8.27-12.99-8.63-.29-.49-.13-1.12.36-1.41.49-.29,1.12-.13,1.42.36.05.08,4.64,7.62,11.22,7.62.05,0,.09,0,.14,0,5.12-.08,10.21-4.61,15.13-13.46.28-.5.91-.68,1.4-.4.5.28.68.91.4,1.4-5.31,9.54-11,14.43-16.91,14.52-.05,0-.11,0-.16,0Z"/><path class="cls-4" d="m333.66,489.14c-.12,0-.23-.02-.35-.06-.54-.19-.81-.79-.62-1.32,1.16-3.21,1.05-6.08-.31-8.53-3.07-5.52-11.51-7.37-11.6-7.39-.56-.12-.91-.67-.8-1.22.12-.56.66-.91,1.22-.8.38.08,9.44,2.05,12.97,8.4,1.67,3,1.82,6.44.45,10.24-.15.42-.55.68-.97.68Z"/><g><path class="cls-1" d="m319.4,480.96c-1.35-1.77-3.31-3-5.5-3.36-1.57-.26-3.15-.69-4.66-1.17l-20.99-6.62c-3.91-1.09-7.91-.64-11.4,1.28-10.53,5.8-32.15,18.87-28.73,26.71,3.69,8.45,22.88.54,29.64-2.57,1.54-.71,3.28-.78,4.93-.2,4.13,1.46,12.25,4.19,16.93,4.86,3.87.55,7.35-1.3,10.18-3.54,1.29-1.02,2.82-1.66,4.54-1.99,2.64-.51,4.94-2.09,6.21-4.48l.03-.06c1.4-2.63,1.14-5.84-.67-8.2l-.51-.67Z"/><path class="cls-4" d="m255.71,502.61c-1.69,0-3.25-.22-4.57-.72-1.88-.72-3.21-1.95-3.96-3.67-3.48-7.97,13.95-19.64,29.18-28.02,3.71-2.05,8.04-2.53,12.18-1.37l21.03,6.63c1.77.56,3.2.92,4.52,1.13,2.41.39,4.6,1.73,6.15,3.75h0l.51.67c2.05,2.68,2.35,6.33.76,9.31,0,0-.03.06-.03.06-1.38,2.59-3.9,4.41-6.92,5-1.64.32-2.98.9-4.1,1.79-3.83,3.03-7.41,4.26-10.96,3.76-4.72-.67-12.76-3.36-17.13-4.91-1.41-.5-2.84-.44-4.16.16-4.68,2.15-14.94,6.43-22.48,6.43Zm28.38-32.34c-2.34,0-4.66.58-6.74,1.74-19.87,10.94-30.44,20.44-28.28,25.39.53,1.21,1.45,2.05,2.81,2.56,6.68,2.54,21.17-3.69,25.46-5.66,1.79-.82,3.81-.9,5.71-.23,4.3,1.52,12.19,4.16,16.73,4.81,2.96.42,6.03-.67,9.39-3.33,1.37-1.08,3.04-1.82,4.99-2.2,2.41-.47,4.41-1.91,5.5-3.95,0,0,.03-.06.03-.06,1.2-2.26.98-5.04-.58-7.08l-.51-.67c-1.23-1.61-2.95-2.66-4.84-2.97-1.41-.23-2.94-.61-4.8-1.2l-21-6.62c-1.27-.36-2.57-.53-3.85-.53Z"/></g><g><g><path class="cls-1" d="m198.46,227.62c.65-1.89,2.59-3,4.53-2.59,5.42,1.15,33.36,7.1,38.57,8.24s5.42,6.75,8.39,11.88c2.58,4.46,11.46,20.81,21.14,32.2,2.92,3.43,3.32,8.35,1.05,12.25-1.3,2.24-2.96,4.44-4.92,5.73-5.21,3.44-9.09,7.56-19.99-18.49,0,0-4.97-2.37-9.75-7.85,0,0-16.99,20.03-21.33-20.64-.39-3.62,1.28-7.14,4.43-8.92.25-.14.52-.28.79-.42l-20.35-6.3c-2.13-.66-3.29-2.96-2.56-5.08Z"/><path class="cls-4" d="m261.77,298.91c-.48,0-.98-.07-1.5-.22-3.99-1.2-8.14-7.51-13.85-21.09-1.18-.62-5.03-2.84-8.96-7.07-1.8,1.78-6.33,5.58-11.13,4.11-5.77-1.78-9.55-10.58-11.21-26.17-.38-3.59,1.07-7.04,3.77-9.14l-18.18-5.63c-1.29-.4-2.35-1.29-2.96-2.5-.62-1.22-.72-2.61-.27-3.9.82-2.38,3.28-3.78,5.72-3.26.33.07,32.91,7,38.57,8.24,4.17.91,5.53,4.28,6.97,7.85.6,1.49,1.23,3.03,2.09,4.52.28.49.64,1.13,1.07,1.88,3.41,6.01,11.41,20.1,19.96,30.16,3.19,3.75,3.65,9.15,1.16,13.44-1.64,2.81-3.4,4.86-5.24,6.07-.22.15-.44.3-.66.44-1.66,1.12-3.37,2.27-5.35,2.27Zm-24.3-30.95c.3,0,.58.13.78.35,4.57,5.23,9.37,7.57,9.42,7.6.23.11.41.3.51.53,5.37,12.84,9.4,19.28,12.68,20.26,1.62.48,2.99-.36,5.1-1.78.22-.15.45-.3.68-.45,1.57-1.04,3.12-2.85,4.6-5.39,2.05-3.53,1.67-7.98-.95-11.06-8.68-10.22-16.74-24.42-20.18-30.48-.43-.75-.78-1.38-1.06-1.87-.93-1.61-1.58-3.22-2.21-4.78-1.34-3.31-2.4-5.93-5.5-6.61-5.65-1.24-38.23-8.17-38.56-8.24-1.43-.3-2.86.52-3.34,1.91-.26.76-.2,1.58.16,2.3.36.71.98,1.23,1.73,1.47l20.35,6.3c.4.12.69.48.72.9.04.42-.18.82-.56,1.01-.26.14-.52.27-.76.41-2.73,1.54-4.26,4.64-3.91,7.91,1.95,18.3,6.39,23.37,9.76,24.41,4.76,1.47,9.7-4.27,9.75-4.33.19-.23.48-.36.78-.36h0Z"/></g><path class="cls-4" d="m241.37,260.85c-.17,0-.35-.04-.51-.13-1.34-.75-3.83-2.46-4.83-3.15-5.55-3.84-8.64-7.65-9.99-9.59-.97-1.39-1.46-2.95-1.42-4.52.08-3.02,2.13-3.71,3-4.01,3.36-1.13,8.69,1.95,9.28,2.31.49.29.65.93.36,1.42-.29.49-.93.65-1.42.36-1.39-.83-5.47-2.83-7.56-2.13-.83.28-1.55.52-1.6,2.1-.03,1.12.33,2.25,1.05,3.28,1.27,1.82,4.19,5.41,9.45,9.06,1,.69,3.43,2.35,4.69,3.07.5.28.67.91.39,1.41-.19.34-.54.53-.9.53Z"/><path class="cls-4" d="m237.7,270.26c-.27,0-.54-.1-.74-.31-4.58-4.71-4.31-9.74-4.3-9.96.04-.57.53-1,1.1-.96.57.04,1,.53.96,1.09-.01.18-.2,4.37,3.72,8.38.4.41.39,1.06-.02,1.46-.2.2-.46.29-.72.29Z"/></g></g><g><g><path class="cls-1" d="m504.36,285.75l5.49-43.95-38.26,11.82-3.86,25.74c-.93,6.92,4.21,11.77,4.21,11.77,6.27,6.58,16.5,7.37,24.7,3.53l1.9-.89c3.18-1.49,5.38-4.52,5.81-8.02Z"/><path class="cls-4" d="m486.34,298.04c-5.8,0-11.27-2.13-15.15-6.19-.19-.17-5.47-5.26-4.48-12.62l3.87-25.76c.06-.39.34-.72.72-.83l38.26-11.82c.33-.1.7-.03.97.2.27.23.4.57.36.92l-5.49,43.95c-.49,3.88-2.88,7.18-6.4,8.83l-1.9.89c-3.51,1.64-7.19,2.44-10.74,2.44Zm-13.82-43.62l-3.77,25.1c-.85,6.3,3.85,10.82,3.89,10.86,5.59,5.87,15.27,7.23,23.56,3.35l1.9-.89c2.88-1.35,4.83-4.04,5.23-7.21l5.3-42.36-36.11,11.16Zm31.84,31.33h0,0Z"/></g><path d="m469.69,177.53c9.48,1.1-3.99,8.71,32.47,4.63,14.52-1.62,4.74,13.31,8.51,12.9,13.91-1.52,13.44-1.48,19.61,1.35,4.09,1.88,5.51,10.27,3.69,16.04-2.41,7.61-9.18,8.5-17.71,23.98-5.99,10.87-6.22,18.07-11.15,18.95-4.98.89-7.35-6.01-12.86-5.45-7.13.72-7.82,12.75-15.28,16.48-4.7,2.35-14.66,2.09-28.92-8.22-2.31-1.67-3.11-4.77-1.9-7.36,1.56-3.32,3.55-7.5,5.78-11.33,10.65-18.27,18.36-21.48,16.71-26.98-2.52-8.43-17.94-6.54-19.27-13.34-1.38-7.06,7.35-23.15,20.32-21.65Z"/><g><path class="cls-1" d="m496.64,216.91l-3.55,4.55c-1.67,2.14-3.19,4.4-4.56,6.75-2.56,4.42-7.01,11.98-9.82,16.02-4.14,5.94-23.37-5.56-23.37-5.56l-.55-4.21-2.23-1.4c-.43-.27-.81-.63-1.05-1.08-.6-1.13-.37-2.44.45-3.29,4.49-4.67,14.01-15.25,18.53-25.46,0,0,15.97-1.28,26.15,13.68Z"/><path class="cls-4" d="m497.67,216.94c-.74,1.08-1.51,2.18-2.31,3.27l-2.32,3.07c-1.41,1.92-2.69,3.91-3.86,6-2.43,4.2-4.9,8.38-7.51,12.49-.66,1.03-1.32,2.05-2.03,3.07-.47.62-1.08,1.21-1.78,1.52-.34.2-.7.28-1.05.41-.35.07-.7.17-1.05.19-1.38.16-2.69.02-3.95-.21-1.26-.23-2.47-.57-3.65-.95-2.37-.78-4.64-1.74-6.85-2.79-2.22-1.06-4.37-2.19-6.51-3.45-.28-.17-.46-.46-.5-.76l-.53-4.21.47.74c-.69-.44-1.35-.93-2.01-1.42-.35-.24-.79-.61-1.09-1.04-.31-.45-.51-.93-.61-1.44-.22-1.01,0-2.1.63-2.93.07-.11.16-.2.25-.3l.21-.23.42-.44.83-.89c2.22-2.39,4.34-4.87,6.36-7.43,2.01-2.56,3.92-5.2,5.67-7.93,1.75-2.73,3.36-5.54,4.64-8.47v-.02c.16-.35.5-.57.86-.59,1.42-.08,2.7,0,4.04.14.66.08,1.32.17,1.97.28.65.13,1.3.24,1.95.4,2.58.6,5.09,1.52,7.44,2.77,2.34,1.24,4.58,2.72,6.51,4.54,1.02.86,1.87,1.87,2.77,2.85.43.43.93,1.15,1.36,1.79.44.66.85,1.33,1.23,1.97Zm-2.06-.07c-.39-.38-.76-.73-1.09-1.1-.35-.37-.56-.74-1.03-1.22-.85-.9-1.65-1.85-2.61-2.64-1.8-1.71-3.88-3.09-6.06-4.25-2.18-1.17-4.53-2.04-6.94-2.61-.6-.15-1.21-.25-1.82-.38-.61-.1-1.23-.19-1.84-.26-1.22-.13-2.5-.2-3.65-.15l.86-.61c-2.82,6.1-6.74,11.49-10.92,16.59-2.11,2.53-4.29,5.01-6.55,7.41l-.85.9-.43.45-.21.22c-.05.06-.1.11-.15.17-.37.48-.53,1.13-.37,1.73.18.63.56.98,1.22,1.3.73.38,1.46.76,2.16,1.19.27.16.43.43.47.72h0s.57,4.22.57,4.22l-.5-.76c4.12,2.36,8.48,4.5,12.95,5.97,1.12.35,2.25.66,3.38.86,1.12.2,2.25.3,3.28.17,1.05-.11,1.84-.52,2.33-1.19.68-.97,1.33-1.98,1.98-2.99,2.59-4.06,5.04-8.23,7.48-12.4,1.22-2.12,2.58-4.2,4.05-6.17.36-.48.77-1.01,1.1-1.43.34-.42.67-.84,1.02-1.25.69-.82,1.41-1.63,2.15-2.46Z"/></g><path class="cls-1" d="m489.82,233.77s8.52-10.95,12.65-5.99c4.13,4.96-5.56,16.78-12.65,5.99Z"/></g></g></g></svg>