<?xml version="1.0" encoding="UTF-8"?><svg id="Warstwa_1" xmlns="http://www.w3.org/2000/svg" viewBox="0 0 641.73 641.73"><defs><style>.cls-1{fill:#fff;}</style></defs><path class="cls-1" d="m382.77,366.9c5.84-7.84,10.23-16.83,12.76-26.56l246.21-19.47-246.21-19.48c-2.53-9.73-6.92-18.72-12.76-26.56l92.36-108.23-108.23,92.36c-7.84-5.84-16.83-10.23-26.56-12.76L320.87,0l-19.48,246.21c-9.73,2.53-18.72,6.92-26.56,12.76l-108.23-92.36,92.36,108.23c-5.84,7.84-10.23,16.83-12.76,26.56L0,320.87l246.21,19.47c2.53,9.73,6.92,18.72,12.76,26.56l-92.36,108.23,108.23-92.36c7.84,5.84,16.83,10.23,26.56,12.76l19.48,246.21,19.47-246.21c9.73-2.53,18.72-6.92,26.56-12.76l108.23,92.36-92.36-108.23Z"/></svg>